<svg width="100" height="100" viewBox="0 0 100 100" fill="none" xmlns="http://www.w3.org/2000/svg">
<rect width="100" height="100" fill="#DDDDDD"/>
<path d="M22.2955 44.3636V56H20.8864V45.8409H20.8182L17.9773 47.7273V46.2955L20.8864 44.3636H22.2955ZM29.4375 56.1591C28.5814 56.1591 27.8523 55.9261 27.25 55.4602C26.6477 54.9905 26.1875 54.3106 25.8693 53.4205C25.5511 52.5265 25.392 51.447 25.392 50.1818C25.392 48.9242 25.5511 47.8504 25.8693 46.9602C26.1913 46.0663 26.6534 45.3845 27.2557 44.9148C27.8617 44.4413 28.589 44.2045 29.4375 44.2045C30.286 44.2045 31.0114 44.4413 31.6136 44.9148C32.2197 45.3845 32.6818 46.0663 33 46.9602C33.322 47.8504 33.483 48.9242 33.483 50.1818C33.483 51.447 33.3239 52.5265 33.0057 53.4205C32.6875 54.3106 32.2273 54.9905 31.625 55.4602C31.0227 55.9261 30.2936 56.1591 29.4375 56.1591ZM29.4375 54.9091C30.286 54.9091 30.9451 54.5 31.4148 53.6818C31.8845 52.8636 32.1193 51.697 32.1193 50.1818C32.1193 49.1742 32.0114 48.3163 31.7955 47.608C31.5833 46.8996 31.2765 46.3598 30.875 45.9886C30.4773 45.6174 29.9981 45.4318 29.4375 45.4318C28.5966 45.4318 27.9394 45.8466 27.4659 46.6761C26.9924 47.5019 26.7557 48.6705 26.7557 50.1818C26.7557 51.1894 26.8617 52.0455 27.0739 52.75C27.286 53.4545 27.5909 53.9905 27.9886 54.358C28.3902 54.7254 28.8731 54.9091 29.4375 54.9091ZM39.4375 56.1591C38.5814 56.1591 37.8523 55.9261 37.25 55.4602C36.6477 54.9905 36.1875 54.3106 35.8693 53.4205C35.5511 52.5265 35.392 51.447 35.392 50.1818C35.392 48.9242 35.5511 47.8504 35.8693 46.9602C36.1913 46.0663 36.6534 45.3845 37.2557 44.9148C37.8617 44.4413 38.589 44.2045 39.4375 44.2045C40.286 44.2045 41.0114 44.4413 41.6136 44.9148C42.2197 45.3845 42.6818 46.0663 43 46.9602C43.322 47.8504 43.483 48.9242 43.483 50.1818C43.483 51.447 43.3239 52.5265 43.0057 53.4205C42.6875 54.3106 42.2273 54.9905 41.625 55.4602C41.0227 55.9261 40.2936 56.1591 39.4375 56.1591ZM39.4375 54.9091C40.286 54.9091 40.9451 54.5 41.4148 53.6818C41.8845 52.8636 42.1193 51.697 42.1193 50.1818C42.1193 49.1742 42.0114 48.3163 41.7955 47.608C41.5833 46.8996 41.2765 46.3598 40.875 45.9886C40.4773 45.6174 39.9981 45.4318 39.4375 45.4318C38.5966 45.4318 37.9394 45.8466 37.4659 46.6761C36.9924 47.5019 36.7557 48.6705 36.7557 50.1818C36.7557 51.1894 36.8617 52.0455 37.0739 52.75C37.286 53.4545 37.5909 53.9905 37.9886 54.358C38.3902 54.7254 38.8731 54.9091 39.4375 54.9091ZM52.483 53.9091L46.0739 47.5L46.9375 46.6364L53.3466 53.0455L52.483 53.9091ZM46.9375 53.9091L46.0739 53.0455L52.483 46.6364L53.3466 47.5L46.9375 53.9091ZM60.2798 44.3636V56H58.8707V45.8409H58.8026L55.9616 47.7273V46.2955L58.8707 44.3636H60.2798ZM67.4219 56.1591C66.5658 56.1591 65.8366 55.9261 65.2344 55.4602C64.6321 54.9905 64.1719 54.3106 63.8537 53.4205C63.5355 52.5265 63.3764 51.447 63.3764 50.1818C63.3764 48.9242 63.5355 47.8504 63.8537 46.9602C64.1757 46.0663 64.6378 45.3845 65.2401 44.9148C65.8461 44.4413 66.5734 44.2045 67.4219 44.2045C68.2704 44.2045 68.9957 44.4413 69.598 44.9148C70.2041 45.3845 70.6662 46.0663 70.9844 46.9602C71.3063 47.8504 71.4673 48.9242 71.4673 50.1818C71.4673 51.447 71.3082 52.5265 70.9901 53.4205C70.6719 54.3106 70.2116 54.9905 69.6094 55.4602C69.0071 55.9261 68.2779 56.1591 67.4219 56.1591ZM67.4219 54.9091C68.2704 54.9091 68.9295 54.5 69.3991 53.6818C69.8688 52.8636 70.1037 51.697 70.1037 50.1818C70.1037 49.1742 69.9957 48.3163 69.7798 47.608C69.5677 46.8996 69.2609 46.3598 68.8594 45.9886C68.4616 45.6174 67.9825 45.4318 67.4219 45.4318C66.581 45.4318 65.9238 45.8466 65.4503 46.6761C64.9768 47.5019 64.7401 48.6705 64.7401 50.1818C64.7401 51.1894 64.8461 52.0455 65.0582 52.75C65.2704 53.4545 65.5753 53.9905 65.973 54.358C66.3745 54.7254 66.8575 54.9091 67.4219 54.9091ZM77.4219 56.1591C76.5658 56.1591 75.8366 55.9261 75.2344 55.4602C74.6321 54.9905 74.1719 54.3106 73.8537 53.4205C73.5355 52.5265 73.3764 51.447 73.3764 50.1818C73.3764 48.9242 73.5355 47.8504 73.8537 46.9602C74.1757 46.0663 74.6378 45.3845 75.2401 44.9148C75.8461 44.4413 76.5734 44.2045 77.4219 44.2045C78.2704 44.2045 78.9957 44.4413 79.598 44.9148C80.2041 45.3845 80.6662 46.0663 80.9844 46.9602C81.3063 47.8504 81.4673 48.9242 81.4673 50.1818C81.4673 51.447 81.3082 52.5265 80.9901 53.4205C80.6719 54.3106 80.2116 54.9905 79.6094 55.4602C79.0071 55.9261 78.2779 56.1591 77.4219 56.1591ZM77.4219 54.9091C78.2704 54.9091 78.9295 54.5 79.3991 53.6818C79.8688 52.8636 80.1037 51.697 80.1037 50.1818C80.1037 49.1742 79.9957 48.3163 79.7798 47.608C79.5677 46.8996 79.2609 46.3598 78.8594 45.9886C78.4616 45.6174 77.9825 45.4318 77.4219 45.4318C76.581 45.4318 75.9238 45.8466 75.4503 46.6761C74.9768 47.5019 74.7401 48.6705 74.7401 50.1818C74.7401 51.1894 74.8461 52.0455 75.0582 52.75C75.2704 53.4545 75.5753 53.9905 75.973 54.358C76.3745 54.7254 76.8575 54.9091 77.4219 54.9091Z" fill="#999999"/>
</svg>
