<svg width="150" height="40" viewBox="0 0 150 40" fill="none" xmlns="http://www.w3.org/2000/svg">
<rect width="150" height="40" fill="#DDDDDD"/>
<path d="M51.2955 14.3636V26H49.8864V15.8409H49.8182L46.9773 17.7273V16.2955L49.8864 14.3636H51.2955ZM58.2784 26.1591C57.6117 26.1591 57.0114 26.0265 56.4773 25.7614C55.9432 25.4962 55.5152 25.1326 55.1932 24.6705C54.8712 24.2083 54.6951 23.6818 54.6648 23.0909H56.0284C56.0814 23.6174 56.3201 24.053 56.7443 24.3977C57.1723 24.7386 57.6837 24.9091 58.2784 24.9091C58.7557 24.9091 59.1799 24.7973 59.5511 24.5739C59.9261 24.3504 60.2197 24.0436 60.4318 23.6534C60.6477 23.2595 60.7557 22.8144 60.7557 22.3182C60.7557 21.8106 60.6439 21.358 60.4205 20.9602C60.2008 20.5587 59.8977 20.2424 59.5114 20.0114C59.125 19.7803 58.6837 19.6629 58.1875 19.6591C57.8314 19.6553 57.4659 19.7102 57.0909 19.8239C56.7159 19.9337 56.4072 20.0758 56.1648 20.25L54.8466 20.0909L55.5511 14.3636H61.5966V15.6136H56.733L56.3239 19.0455H56.392C56.6307 18.8561 56.9299 18.6989 57.2898 18.5739C57.6496 18.4489 58.0246 18.3864 58.4148 18.3864C59.1269 18.3864 59.7614 18.5568 60.3182 18.8977C60.8788 19.2348 61.3182 19.697 61.6364 20.2841C61.9583 20.8712 62.1193 21.5417 62.1193 22.2955C62.1193 23.0379 61.9527 23.7008 61.6193 24.2841C61.2898 24.8636 60.8352 25.322 60.2557 25.6591C59.6761 25.9924 59.017 26.1591 58.2784 26.1591ZM68.1719 26.1591C67.3158 26.1591 66.5866 25.9261 65.9844 25.4602C65.3821 24.9905 64.9219 24.3106 64.6037 23.4205C64.2855 22.5265 64.1264 21.447 64.1264 20.1818C64.1264 18.9242 64.2855 17.8504 64.6037 16.9602C64.9257 16.0663 65.3878 15.3845 65.9901 14.9148C66.5961 14.4413 67.3234 14.2045 68.1719 14.2045C69.0204 14.2045 69.7457 14.4413 70.348 14.9148C70.9541 15.3845 71.4162 16.0663 71.7344 16.9602C72.0563 17.8504 72.2173 18.9242 72.2173 20.1818C72.2173 21.447 72.0582 22.5265 71.7401 23.4205C71.4219 24.3106 70.9616 24.9905 70.3594 25.4602C69.7571 25.9261 69.0279 26.1591 68.1719 26.1591ZM68.1719 24.9091C69.0204 24.9091 69.6795 24.5 70.1491 23.6818C70.6188 22.8636 70.8537 21.697 70.8537 20.1818C70.8537 19.1742 70.7457 18.3163 70.5298 17.608C70.3177 16.8996 70.0109 16.3598 69.6094 15.9886C69.2116 15.6174 68.7325 15.4318 68.1719 15.4318C67.331 15.4318 66.6738 15.8466 66.2003 16.6761C65.7268 17.5019 65.4901 18.6705 65.4901 20.1818C65.4901 21.1894 65.5961 22.0455 65.8082 22.75C66.0204 23.4545 66.3253 23.9905 66.723 24.358C67.1245 24.7254 67.6075 24.9091 68.1719 24.9091ZM81.2173 23.9091L74.8082 17.5L75.6719 16.6364L82.081 23.0455L81.2173 23.9091ZM75.6719 23.9091L74.8082 23.0455L81.2173 16.6364L82.081 17.5L75.6719 23.9091ZM84.6506 23.6136V22.4545L89.7642 14.3636H90.6051V16.1591H90.0369L86.1733 22.2727V22.3636H93.0597V23.6136H84.6506ZM90.1278 26V23.2614V22.7216V14.3636H91.4688V26H90.1278ZM98.9844 26.1591C98.1283 26.1591 97.3991 25.9261 96.7969 25.4602C96.1946 24.9905 95.7344 24.3106 95.4162 23.4205C95.098 22.5265 94.9389 21.447 94.9389 20.1818C94.9389 18.9242 95.098 17.8504 95.4162 16.9602C95.7382 16.0663 96.2003 15.3845 96.8026 14.9148C97.4086 14.4413 98.1359 14.2045 98.9844 14.2045C99.8329 14.2045 100.558 14.4413 101.161 14.9148C101.767 15.3845 102.229 16.0663 102.547 16.9602C102.869 17.8504 103.03 18.9242 103.03 20.1818C103.03 21.447 102.871 22.5265 102.553 23.4205C102.234 24.3106 101.774 24.9905 101.172 25.4602C100.57 25.9261 99.8404 26.1591 98.9844 26.1591ZM98.9844 24.9091C99.8329 24.9091 100.492 24.5 100.962 23.6818C101.431 22.8636 101.666 21.697 101.666 20.1818C101.666 19.1742 101.558 18.3163 101.342 17.608C101.13 16.8996 100.823 16.3598 100.422 15.9886C100.024 15.6174 99.545 15.4318 98.9844 15.4318C98.1435 15.4318 97.4863 15.8466 97.0128 16.6761C96.5393 17.5019 96.3026 18.6705 96.3026 20.1818C96.3026 21.1894 96.4086 22.0455 96.6207 22.75C96.8329 23.4545 97.1378 23.9905 97.5355 24.358C97.937 24.7254 98.42 24.9091 98.9844 24.9091Z" fill="#999999"/>
</svg>
