<svg width="1900" height="500" viewBox="0 0 1900 500" fill="none" xmlns="http://www.w3.org/2000/svg">
<rect width="1900" height="500" fill="#DDDDDD"/>
<path d="M679.364 210.909V304H668.091V222.727H667.545L644.818 237.818V226.364L668.091 210.909H679.364ZM735.773 209.636C739.591 209.667 743.409 210.394 747.227 211.818C751.045 213.242 754.53 215.606 757.682 218.909C760.833 222.182 763.364 226.652 765.273 232.318C767.182 237.985 768.136 245.091 768.136 253.636C768.136 261.909 767.348 269.258 765.773 275.682C764.227 282.076 761.985 287.47 759.045 291.864C756.136 296.258 752.591 299.591 748.409 301.864C744.258 304.136 739.561 305.273 734.318 305.273C729.106 305.273 724.455 304.242 720.364 302.182C716.303 300.091 712.97 297.197 710.364 293.5C707.788 289.773 706.136 285.455 705.409 280.545H716.5C717.5 284.818 719.485 288.348 722.455 291.136C725.455 293.894 729.409 295.273 734.318 295.273C741.5 295.273 747.167 292.136 751.318 285.864C755.5 279.591 757.591 270.727 757.591 259.273H756.864C755.167 261.818 753.152 264.015 750.818 265.864C748.485 267.712 745.894 269.136 743.045 270.136C740.197 271.136 737.167 271.636 733.955 271.636C728.621 271.636 723.727 270.318 719.273 267.682C714.848 265.015 711.303 261.364 708.636 256.727C706 252.061 704.682 246.727 704.682 240.727C704.682 235.03 705.955 229.818 708.5 225.091C711.076 220.333 714.682 216.545 719.318 213.727C723.985 210.909 729.47 209.545 735.773 209.636ZM735.773 219.636C731.955 219.636 728.515 220.591 725.455 222.5C722.424 224.379 720.015 226.924 718.227 230.136C716.47 233.318 715.591 236.848 715.591 240.727C715.591 244.606 716.439 248.136 718.136 251.318C719.864 254.47 722.212 256.985 725.182 258.864C728.182 260.712 731.591 261.636 735.409 261.636C738.288 261.636 740.97 261.076 743.455 259.955C745.939 258.803 748.106 257.242 749.955 255.273C751.833 253.273 753.303 251.015 754.364 248.5C755.424 245.955 755.955 243.303 755.955 240.545C755.955 236.909 755.076 233.5 753.318 230.318C751.591 227.136 749.197 224.561 746.136 222.591C743.106 220.621 739.652 219.636 735.773 219.636ZM816.375 305.273C809.527 305.273 803.693 303.409 798.875 299.682C794.057 295.924 790.375 290.485 787.83 283.364C785.284 276.212 784.011 267.576 784.011 257.455C784.011 247.394 785.284 238.803 787.83 231.682C790.405 224.53 794.102 219.076 798.92 215.318C803.769 211.53 809.587 209.636 816.375 209.636C823.163 209.636 828.966 211.53 833.784 215.318C838.633 219.076 842.33 224.53 844.875 231.682C847.451 238.803 848.739 247.394 848.739 257.455C848.739 267.576 847.466 276.212 844.92 283.364C842.375 290.485 838.693 295.924 833.875 299.682C829.057 303.409 823.223 305.273 816.375 305.273ZM816.375 295.273C823.163 295.273 828.436 292 832.193 285.455C835.951 278.909 837.83 269.576 837.83 257.455C837.83 249.394 836.966 242.53 835.239 236.864C833.542 231.197 831.087 226.879 827.875 223.909C824.693 220.939 820.86 219.455 816.375 219.455C809.648 219.455 804.39 222.773 800.602 229.409C796.814 236.015 794.92 245.364 794.92 257.455C794.92 265.515 795.769 272.364 797.466 278C799.163 283.636 801.602 287.924 804.784 290.864C807.996 293.803 811.86 295.273 816.375 295.273ZM896.375 305.273C889.527 305.273 883.693 303.409 878.875 299.682C874.057 295.924 870.375 290.485 867.83 283.364C865.284 276.212 864.011 267.576 864.011 257.455C864.011 247.394 865.284 238.803 867.83 231.682C870.405 224.53 874.102 219.076 878.92 215.318C883.769 211.53 889.587 209.636 896.375 209.636C903.163 209.636 908.966 211.53 913.784 215.318C918.633 219.076 922.33 224.53 924.875 231.682C927.451 238.803 928.739 247.394 928.739 257.455C928.739 267.576 927.466 276.212 924.92 283.364C922.375 290.485 918.693 295.924 913.875 299.682C909.057 303.409 903.223 305.273 896.375 305.273ZM896.375 295.273C903.163 295.273 908.436 292 912.193 285.455C915.951 278.909 917.83 269.576 917.83 257.455C917.83 249.394 916.966 242.53 915.239 236.864C913.542 231.197 911.087 226.879 907.875 223.909C904.693 220.939 900.86 219.455 896.375 219.455C889.648 219.455 884.39 222.773 880.602 229.409C876.814 236.015 874.92 245.364 874.92 257.455C874.92 265.515 875.769 272.364 877.466 278C879.163 283.636 881.602 287.924 884.784 290.864C887.996 293.803 891.86 295.273 896.375 295.273ZM1000.74 287.273L949.466 236L956.375 229.091L1007.65 280.364L1000.74 287.273ZM956.375 287.273L949.466 280.364L1000.74 229.091L1007.65 236L956.375 287.273ZM1059.48 305.273C1054.14 305.273 1049.34 304.212 1045.07 302.091C1040.8 299.97 1037.37 297.061 1034.8 293.364C1032.22 289.667 1030.81 285.455 1030.57 280.727H1041.48C1041.9 284.939 1043.81 288.424 1047.2 291.182C1050.63 293.909 1054.72 295.273 1059.48 295.273C1063.3 295.273 1066.69 294.379 1069.66 292.591C1072.66 290.803 1075.01 288.348 1076.7 285.227C1078.43 282.076 1079.3 278.515 1079.3 274.545C1079.3 270.485 1078.4 266.864 1076.61 263.682C1074.86 260.47 1072.43 257.939 1069.34 256.091C1066.25 254.242 1062.72 253.303 1058.75 253.273C1055.9 253.242 1052.98 253.682 1049.98 254.591C1046.98 255.47 1044.51 256.606 1042.57 258L1032.02 256.727L1037.66 210.909H1086.02V220.909H1047.11L1043.84 248.364H1044.39C1046.3 246.848 1048.69 245.591 1051.57 244.591C1054.45 243.591 1057.45 243.091 1060.57 243.091C1066.27 243.091 1071.34 244.455 1075.8 247.182C1080.28 249.879 1083.8 253.576 1086.34 258.273C1088.92 262.97 1090.2 268.333 1090.2 274.364C1090.2 280.303 1088.87 285.606 1086.2 290.273C1083.57 294.909 1079.93 298.576 1075.3 301.273C1070.66 303.939 1065.39 305.273 1059.48 305.273ZM1138.62 305.273C1131.78 305.273 1125.94 303.409 1121.12 299.682C1116.31 295.924 1112.63 290.485 1110.08 283.364C1107.53 276.212 1106.26 267.576 1106.26 257.455C1106.26 247.394 1107.53 238.803 1110.08 231.682C1112.66 224.53 1116.35 219.076 1121.17 215.318C1126.02 211.53 1131.84 209.636 1138.62 209.636C1145.41 209.636 1151.22 211.53 1156.03 215.318C1160.88 219.076 1164.58 224.53 1167.12 231.682C1169.7 238.803 1170.99 247.394 1170.99 257.455C1170.99 267.576 1169.72 276.212 1167.17 283.364C1164.62 290.485 1160.94 295.924 1156.12 299.682C1151.31 303.409 1145.47 305.273 1138.62 305.273ZM1138.62 295.273C1145.41 295.273 1150.69 292 1154.44 285.455C1158.2 278.909 1160.08 269.576 1160.08 257.455C1160.08 249.394 1159.22 242.53 1157.49 236.864C1155.79 231.197 1153.34 226.879 1150.12 223.909C1146.94 220.939 1143.11 219.455 1138.62 219.455C1131.9 219.455 1126.64 222.773 1122.85 229.409C1119.06 236.015 1117.17 245.364 1117.17 257.455C1117.17 265.515 1118.02 272.364 1119.72 278C1121.41 283.636 1123.85 287.924 1127.03 290.864C1130.25 293.803 1134.11 295.273 1138.62 295.273ZM1218.62 305.273C1211.78 305.273 1205.94 303.409 1201.12 299.682C1196.31 295.924 1192.63 290.485 1190.08 283.364C1187.53 276.212 1186.26 267.576 1186.26 257.455C1186.26 247.394 1187.53 238.803 1190.08 231.682C1192.66 224.53 1196.35 219.076 1201.17 215.318C1206.02 211.53 1211.84 209.636 1218.62 209.636C1225.41 209.636 1231.22 211.53 1236.03 215.318C1240.88 219.076 1244.58 224.53 1247.12 231.682C1249.7 238.803 1250.99 247.394 1250.99 257.455C1250.99 267.576 1249.72 276.212 1247.17 283.364C1244.62 290.485 1240.94 295.924 1236.12 299.682C1231.31 303.409 1225.47 305.273 1218.62 305.273ZM1218.62 295.273C1225.41 295.273 1230.69 292 1234.44 285.455C1238.2 278.909 1240.08 269.576 1240.08 257.455C1240.08 249.394 1239.22 242.53 1237.49 236.864C1235.79 231.197 1233.34 226.879 1230.12 223.909C1226.94 220.939 1223.11 219.455 1218.62 219.455C1211.9 219.455 1206.64 222.773 1202.85 229.409C1199.06 236.015 1197.17 245.364 1197.17 257.455C1197.17 265.515 1198.02 272.364 1199.72 278C1201.41 283.636 1203.85 287.924 1207.03 290.864C1210.25 293.803 1214.11 295.273 1218.62 295.273Z" fill="#999999"/>
</svg>
