<svg width="1920" height="700" viewBox="0 0 1920 700" fill="none" xmlns="http://www.w3.org/2000/svg">
<rect width="1920" height="700" fill="#DDDDDD"/>
<path d="M679.364 297.909V391H668.091V309.727H667.545L644.818 324.818V313.364L668.091 297.909H679.364ZM735.773 296.636C739.591 296.667 743.409 297.394 747.227 298.818C751.045 300.242 754.53 302.606 757.682 305.909C760.833 309.182 763.364 313.652 765.273 319.318C767.182 324.985 768.136 332.091 768.136 340.636C768.136 348.909 767.348 356.258 765.773 362.682C764.227 369.076 761.985 374.47 759.045 378.864C756.136 383.258 752.591 386.591 748.409 388.864C744.258 391.136 739.561 392.273 734.318 392.273C729.106 392.273 724.455 391.242 720.364 389.182C716.303 387.091 712.97 384.197 710.364 380.5C707.788 376.773 706.136 372.455 705.409 367.545H716.5C717.5 371.818 719.485 375.348 722.455 378.136C725.455 380.894 729.409 382.273 734.318 382.273C741.5 382.273 747.167 379.136 751.318 372.864C755.5 366.591 757.591 357.727 757.591 346.273H756.864C755.167 348.818 753.152 351.015 750.818 352.864C748.485 354.712 745.894 356.136 743.045 357.136C740.197 358.136 737.167 358.636 733.955 358.636C728.621 358.636 723.727 357.318 719.273 354.682C714.848 352.015 711.303 348.364 708.636 343.727C706 339.061 704.682 333.727 704.682 327.727C704.682 322.03 705.955 316.818 708.5 312.091C711.076 307.333 714.682 303.545 719.318 300.727C723.985 297.909 729.47 296.545 735.773 296.636ZM735.773 306.636C731.955 306.636 728.515 307.591 725.455 309.5C722.424 311.379 720.015 313.924 718.227 317.136C716.47 320.318 715.591 323.848 715.591 327.727C715.591 331.606 716.439 335.136 718.136 338.318C719.864 341.47 722.212 343.985 725.182 345.864C728.182 347.712 731.591 348.636 735.409 348.636C738.288 348.636 740.97 348.076 743.455 346.955C745.939 345.803 748.106 344.242 749.955 342.273C751.833 340.273 753.303 338.015 754.364 335.5C755.424 332.955 755.955 330.303 755.955 327.545C755.955 323.909 755.076 320.5 753.318 317.318C751.591 314.136 749.197 311.561 746.136 309.591C743.106 307.621 739.652 306.636 735.773 306.636ZM786.011 391V382.818L816.739 349.182C820.345 345.242 823.314 341.818 825.648 338.909C827.981 335.97 829.708 333.212 830.83 330.636C831.981 328.03 832.557 325.303 832.557 322.455C832.557 319.182 831.769 316.348 830.193 313.955C828.648 311.561 826.527 309.712 823.83 308.409C821.133 307.106 818.102 306.455 814.739 306.455C811.163 306.455 808.042 307.197 805.375 308.682C802.739 310.136 800.693 312.182 799.239 314.818C797.814 317.455 797.102 320.545 797.102 324.091H786.375C786.375 318.636 787.633 313.848 790.148 309.727C792.663 305.606 796.087 302.394 800.42 300.091C804.784 297.788 809.678 296.636 815.102 296.636C820.557 296.636 825.39 297.788 829.602 300.091C833.814 302.394 837.117 305.5 839.511 309.409C841.905 313.318 843.102 317.667 843.102 322.455C843.102 325.879 842.481 329.227 841.239 332.5C840.027 335.742 837.905 339.364 834.875 343.364C831.875 347.333 827.708 352.182 822.375 357.909L801.466 380.273V381H844.739V391H786.011ZM893.875 392.273C887.027 392.273 881.193 390.409 876.375 386.682C871.557 382.924 867.875 377.485 865.33 370.364C862.784 363.212 861.511 354.576 861.511 344.455C861.511 334.394 862.784 325.803 865.33 318.682C867.905 311.53 871.602 306.076 876.42 302.318C881.269 298.53 887.087 296.636 893.875 296.636C900.663 296.636 906.466 298.53 911.284 302.318C916.133 306.076 919.83 311.53 922.375 318.682C924.951 325.803 926.239 334.394 926.239 344.455C926.239 354.576 924.966 363.212 922.42 370.364C919.875 377.485 916.193 382.924 911.375 386.682C906.557 390.409 900.723 392.273 893.875 392.273ZM893.875 382.273C900.663 382.273 905.936 379 909.693 372.455C913.451 365.909 915.33 356.576 915.33 344.455C915.33 336.394 914.466 329.53 912.739 323.864C911.042 318.197 908.587 313.879 905.375 310.909C902.193 307.939 898.36 306.455 893.875 306.455C887.148 306.455 881.89 309.773 878.102 316.409C874.314 323.015 872.42 332.364 872.42 344.455C872.42 352.515 873.269 359.364 874.966 365C876.663 370.636 879.102 374.924 882.284 377.864C885.496 380.803 889.36 382.273 893.875 382.273ZM998.239 374.273L946.966 323L953.875 316.091L1005.15 367.364L998.239 374.273ZM953.875 374.273L946.966 367.364L998.239 316.091L1005.15 323L953.875 374.273ZM1030.8 391L1072.43 308.636V307.909H1024.43V297.909H1084.07V308.455L1042.61 391H1030.8ZM1129.38 392.273C1122.53 392.273 1116.69 390.409 1111.88 386.682C1107.06 382.924 1103.38 377.485 1100.83 370.364C1098.28 363.212 1097.01 354.576 1097.01 344.455C1097.01 334.394 1098.28 325.803 1100.83 318.682C1103.41 311.53 1107.1 306.076 1111.92 302.318C1116.77 298.53 1122.59 296.636 1129.38 296.636C1136.16 296.636 1141.97 298.53 1146.78 302.318C1151.63 306.076 1155.33 311.53 1157.88 318.682C1160.45 325.803 1161.74 334.394 1161.74 344.455C1161.74 354.576 1160.47 363.212 1157.92 370.364C1155.38 377.485 1151.69 382.924 1146.88 386.682C1142.06 390.409 1136.22 392.273 1129.38 392.273ZM1129.38 382.273C1136.16 382.273 1141.44 379 1145.19 372.455C1148.95 365.909 1150.83 356.576 1150.83 344.455C1150.83 336.394 1149.97 329.53 1148.24 323.864C1146.54 318.197 1144.09 313.879 1140.88 310.909C1137.69 307.939 1133.86 306.455 1129.38 306.455C1122.65 306.455 1117.39 309.773 1113.6 316.409C1109.81 323.015 1107.92 332.364 1107.92 344.455C1107.92 352.515 1108.77 359.364 1110.47 365C1112.16 370.636 1114.6 374.924 1117.78 377.864C1121 380.803 1124.86 382.273 1129.38 382.273ZM1209.38 392.273C1202.53 392.273 1196.69 390.409 1191.88 386.682C1187.06 382.924 1183.38 377.485 1180.83 370.364C1178.28 363.212 1177.01 354.576 1177.01 344.455C1177.01 334.394 1178.28 325.803 1180.83 318.682C1183.41 311.53 1187.1 306.076 1191.92 302.318C1196.77 298.53 1202.59 296.636 1209.38 296.636C1216.16 296.636 1221.97 298.53 1226.78 302.318C1231.63 306.076 1235.33 311.53 1237.88 318.682C1240.45 325.803 1241.74 334.394 1241.74 344.455C1241.74 354.576 1240.47 363.212 1237.92 370.364C1235.38 377.485 1231.69 382.924 1226.88 386.682C1222.06 390.409 1216.22 392.273 1209.38 392.273ZM1209.38 382.273C1216.16 382.273 1221.44 379 1225.19 372.455C1228.95 365.909 1230.83 356.576 1230.83 344.455C1230.83 336.394 1229.97 329.53 1228.24 323.864C1226.54 318.197 1224.09 313.879 1220.88 310.909C1217.69 307.939 1213.86 306.455 1209.38 306.455C1202.65 306.455 1197.39 309.773 1193.6 316.409C1189.81 323.015 1187.92 332.364 1187.92 344.455C1187.92 352.515 1188.77 359.364 1190.47 365C1192.16 370.636 1194.6 374.924 1197.78 377.864C1201 380.803 1204.86 382.273 1209.38 382.273Z" fill="#999999"/>
</svg>
