<svg width="340" height="340" viewBox="0 0 340 340" fill="none" xmlns="http://www.w3.org/2000/svg">
<rect width="340" height="340" fill="#DDDDDD"/>
<path d="M92.8409 184.398C90.9659 184.398 89.2945 184.076 87.8267 183.432C86.3684 182.788 85.2083 181.893 84.3466 180.747C83.4943 179.592 83.0303 178.252 82.9545 176.727H86.5341C86.6098 177.665 86.9318 178.474 87.5 179.156C88.0682 179.829 88.8116 180.349 89.7301 180.719C90.6487 181.088 91.6667 181.273 92.7841 181.273C94.0341 181.273 95.142 181.055 96.108 180.619C97.0739 180.184 97.8314 179.578 98.3807 178.801C98.9299 178.025 99.2045 177.125 99.2045 176.102C99.2045 175.032 98.9394 174.09 98.4091 173.276C97.8788 172.452 97.1023 171.808 96.0795 171.344C95.0568 170.88 93.8068 170.648 92.3295 170.648H90V167.523H92.3295C93.4848 167.523 94.4981 167.314 95.3693 166.898C96.25 166.481 96.9366 165.894 97.429 165.136C97.9309 164.379 98.1818 163.489 98.1818 162.466C98.1818 161.481 97.964 160.624 97.5284 159.895C97.0928 159.166 96.4773 158.598 95.6818 158.19C94.8958 157.783 93.9678 157.58 92.8977 157.58C91.8939 157.58 90.947 157.764 90.0568 158.134C89.1761 158.493 88.4564 159.019 87.8977 159.71C87.339 160.392 87.036 161.216 86.9886 162.182H83.5795C83.6364 160.657 84.0956 159.322 84.9574 158.176C85.8191 157.021 86.946 156.121 88.3381 155.477C89.7396 154.833 91.2784 154.511 92.9545 154.511C94.7538 154.511 96.2973 154.876 97.5852 155.605C98.8731 156.325 99.8627 157.277 100.554 158.46C101.245 159.644 101.591 160.922 101.591 162.295C101.591 163.934 101.16 165.33 100.298 166.486C99.446 167.641 98.286 168.441 96.8182 168.886V169.114C98.6553 169.417 100.09 170.198 101.122 171.457C102.154 172.707 102.67 174.256 102.67 176.102C102.67 177.684 102.24 179.104 101.378 180.364C100.526 181.614 99.3608 182.598 97.8835 183.318C96.4063 184.038 94.7254 184.398 92.8409 184.398ZM107.798 178.034V175.136L120.582 154.909H122.685V159.398H121.264L111.605 174.682V174.909H128.821V178.034H107.798ZM121.491 184V177.153V175.804V154.909H124.844V184H121.491ZM143.633 184.398C141.493 184.398 139.67 183.815 138.164 182.651C136.658 181.476 135.508 179.777 134.712 177.551C133.917 175.316 133.519 172.617 133.519 169.455C133.519 166.311 133.917 163.626 134.712 161.401C135.517 159.166 136.673 157.461 138.178 156.287C139.693 155.103 141.512 154.511 143.633 154.511C145.754 154.511 147.567 155.103 149.073 156.287C150.588 157.461 151.744 159.166 152.539 161.401C153.344 163.626 153.746 166.311 153.746 169.455C153.746 172.617 153.349 175.316 152.553 177.551C151.758 179.777 150.607 181.476 149.102 182.651C147.596 183.815 145.773 184.398 143.633 184.398ZM143.633 181.273C145.754 181.273 147.402 180.25 148.576 178.205C149.75 176.159 150.337 173.242 150.337 169.455C150.337 166.936 150.067 164.791 149.528 163.02C148.997 161.249 148.23 159.9 147.227 158.972C146.232 158.044 145.034 157.58 143.633 157.58C141.531 157.58 139.888 158.616 138.704 160.69C137.52 162.755 136.928 165.676 136.928 169.455C136.928 171.973 137.193 174.114 137.724 175.875C138.254 177.636 139.016 178.976 140.011 179.895C141.014 180.813 142.222 181.273 143.633 181.273ZM176.246 178.773L160.224 162.75L162.383 160.591L178.406 176.614L176.246 178.773ZM162.383 178.773L160.224 176.614L176.246 160.591L178.406 162.75L162.383 178.773ZM195.341 184.398C193.466 184.398 191.795 184.076 190.327 183.432C188.868 182.788 187.708 181.893 186.847 180.747C185.994 179.592 185.53 178.252 185.455 176.727H189.034C189.11 177.665 189.432 178.474 190 179.156C190.568 179.829 191.312 180.349 192.23 180.719C193.149 181.088 194.167 181.273 195.284 181.273C196.534 181.273 197.642 181.055 198.608 180.619C199.574 180.184 200.331 179.578 200.881 178.801C201.43 178.025 201.705 177.125 201.705 176.102C201.705 175.032 201.439 174.09 200.909 173.276C200.379 172.452 199.602 171.808 198.58 171.344C197.557 170.88 196.307 170.648 194.83 170.648H192.5V167.523H194.83C195.985 167.523 196.998 167.314 197.869 166.898C198.75 166.481 199.437 165.894 199.929 165.136C200.431 164.379 200.682 163.489 200.682 162.466C200.682 161.481 200.464 160.624 200.028 159.895C199.593 159.166 198.977 158.598 198.182 158.19C197.396 157.783 196.468 157.58 195.398 157.58C194.394 157.58 193.447 157.764 192.557 158.134C191.676 158.493 190.956 159.019 190.398 159.71C189.839 160.392 189.536 161.216 189.489 162.182H186.08C186.136 160.657 186.596 159.322 187.457 158.176C188.319 157.021 189.446 156.121 190.838 155.477C192.24 154.833 193.778 154.511 195.455 154.511C197.254 154.511 198.797 154.876 200.085 155.605C201.373 156.325 202.363 157.277 203.054 158.46C203.745 159.644 204.091 160.922 204.091 162.295C204.091 163.934 203.66 165.33 202.798 166.486C201.946 167.641 200.786 168.441 199.318 168.886V169.114C201.155 169.417 202.59 170.198 203.622 171.457C204.654 172.707 205.17 174.256 205.17 176.102C205.17 177.684 204.74 179.104 203.878 180.364C203.026 181.614 201.861 182.598 200.384 183.318C198.906 184.038 197.225 184.398 195.341 184.398ZM210.298 178.034V175.136L223.082 154.909H225.185V159.398H223.764L214.105 174.682V174.909H231.321V178.034H210.298ZM223.991 184V177.153V175.804V154.909H227.344V184H223.991ZM246.133 184.398C243.993 184.398 242.17 183.815 240.664 182.651C239.158 181.476 238.008 179.777 237.212 177.551C236.417 175.316 236.019 172.617 236.019 169.455C236.019 166.311 236.417 163.626 237.212 161.401C238.017 159.166 239.173 157.461 240.678 156.287C242.193 155.103 244.012 154.511 246.133 154.511C248.254 154.511 250.067 155.103 251.573 156.287C253.088 157.461 254.244 159.166 255.039 161.401C255.844 163.626 256.246 166.311 256.246 169.455C256.246 172.617 255.849 175.316 255.053 177.551C254.258 179.777 253.107 181.476 251.602 182.651C250.096 183.815 248.273 184.398 246.133 184.398ZM246.133 181.273C248.254 181.273 249.902 180.25 251.076 178.205C252.25 176.159 252.837 173.242 252.837 169.455C252.837 166.936 252.567 164.791 252.028 163.02C251.497 161.249 250.73 159.9 249.727 158.972C248.732 158.044 247.534 157.58 246.133 157.58C244.031 157.58 242.388 158.616 241.204 160.69C240.02 162.755 239.428 165.676 239.428 169.455C239.428 171.973 239.693 174.114 240.224 175.875C240.754 177.636 241.516 178.976 242.511 179.895C243.514 180.813 244.722 181.273 246.133 181.273Z" fill="#999999"/>
</svg>
