<svg width="400" height="400" viewBox="0 0 400 400" fill="none" xmlns="http://www.w3.org/2000/svg">
<rect width="400" height="400" fill="#DDDDDD"/>
<path d="M95.7955 211.841V208.364L111.136 184.091H113.659V189.477H111.955L100.364 207.818V208.091H121.023V211.841H95.7955ZM112.227 219V210.784V209.165V184.091H116.25V219H112.227ZM138.797 219.477C136.229 219.477 134.041 218.778 132.234 217.381C130.428 215.972 129.047 213.932 128.092 211.261C127.138 208.58 126.661 205.341 126.661 201.545C126.661 197.773 127.138 194.551 128.092 191.881C129.058 189.199 130.445 187.153 132.251 185.744C134.07 184.324 136.251 183.614 138.797 183.614C141.342 183.614 143.518 184.324 145.325 185.744C147.143 187.153 148.53 189.199 149.484 191.881C150.45 194.551 150.933 197.773 150.933 201.545C150.933 205.341 150.456 208.58 149.501 211.261C148.547 213.932 147.166 215.972 145.359 217.381C143.553 218.778 141.365 219.477 138.797 219.477ZM138.797 215.727C141.342 215.727 143.32 214.5 144.729 212.045C146.138 209.591 146.842 206.091 146.842 201.545C146.842 198.523 146.518 195.949 145.871 193.824C145.234 191.699 144.314 190.08 143.109 188.966C141.916 187.852 140.479 187.295 138.797 187.295C136.274 187.295 134.303 188.54 132.882 191.028C131.462 193.506 130.751 197.011 130.751 201.545C130.751 204.568 131.07 207.136 131.706 209.25C132.342 211.364 133.257 212.972 134.45 214.074C135.655 215.176 137.104 215.727 138.797 215.727ZM168.797 219.477C166.229 219.477 164.041 218.778 162.234 217.381C160.428 215.972 159.047 213.932 158.092 211.261C157.138 208.58 156.661 205.341 156.661 201.545C156.661 197.773 157.138 194.551 158.092 191.881C159.058 189.199 160.445 187.153 162.251 185.744C164.07 184.324 166.251 183.614 168.797 183.614C171.342 183.614 173.518 184.324 175.325 185.744C177.143 187.153 178.53 189.199 179.484 191.881C180.45 194.551 180.933 197.773 180.933 201.545C180.933 205.341 180.456 208.58 179.501 211.261C178.547 213.932 177.166 215.972 175.359 217.381C173.553 218.778 171.365 219.477 168.797 219.477ZM168.797 215.727C171.342 215.727 173.32 214.5 174.729 212.045C176.138 209.591 176.842 206.091 176.842 201.545C176.842 198.523 176.518 195.949 175.871 193.824C175.234 191.699 174.314 190.08 173.109 188.966C171.916 187.852 170.479 187.295 168.797 187.295C166.274 187.295 164.303 188.54 162.882 191.028C161.462 193.506 160.751 197.011 160.751 201.545C160.751 204.568 161.07 207.136 161.706 209.25C162.342 211.364 163.257 212.972 164.45 214.074C165.655 215.176 167.104 215.727 168.797 215.727ZM207.933 212.727L188.706 193.5L191.297 190.909L210.524 210.136L207.933 212.727ZM191.297 212.727L188.706 210.136L207.933 190.909L210.524 193.5L191.297 212.727ZM218.233 211.841V208.364L233.574 184.091H236.097V189.477H234.392L222.801 207.818V208.091H243.46V211.841H218.233ZM234.665 219V210.784V209.165V184.091H238.688V219H234.665ZM261.234 219.477C258.666 219.477 256.479 218.778 254.672 217.381C252.865 215.972 251.484 213.932 250.53 211.261C249.575 208.58 249.098 205.341 249.098 201.545C249.098 197.773 249.575 194.551 250.53 191.881C251.496 189.199 252.882 187.153 254.689 185.744C256.507 184.324 258.689 183.614 261.234 183.614C263.78 183.614 265.956 184.324 267.763 185.744C269.581 187.153 270.967 189.199 271.922 191.881C272.888 194.551 273.371 197.773 273.371 201.545C273.371 205.341 272.893 208.58 271.939 211.261C270.984 213.932 269.604 215.972 267.797 217.381C265.99 218.778 263.803 219.477 261.234 219.477ZM261.234 215.727C263.78 215.727 265.757 214.5 267.166 212.045C268.575 209.591 269.28 206.091 269.28 201.545C269.28 198.523 268.956 195.949 268.308 193.824C267.672 191.699 266.751 190.08 265.547 188.966C264.354 187.852 262.916 187.295 261.234 187.295C258.712 187.295 256.74 188.54 255.32 191.028C253.899 193.506 253.189 197.011 253.189 201.545C253.189 204.568 253.507 207.136 254.143 209.25C254.78 211.364 255.695 212.972 256.888 214.074C258.092 215.176 259.541 215.727 261.234 215.727ZM291.234 219.477C288.666 219.477 286.479 218.778 284.672 217.381C282.865 215.972 281.484 213.932 280.53 211.261C279.575 208.58 279.098 205.341 279.098 201.545C279.098 197.773 279.575 194.551 280.53 191.881C281.496 189.199 282.882 187.153 284.689 185.744C286.507 184.324 288.689 183.614 291.234 183.614C293.78 183.614 295.956 184.324 297.763 185.744C299.581 187.153 300.967 189.199 301.922 191.881C302.888 194.551 303.371 197.773 303.371 201.545C303.371 205.341 302.893 208.58 301.939 211.261C300.984 213.932 299.604 215.972 297.797 217.381C295.99 218.778 293.803 219.477 291.234 219.477ZM291.234 215.727C293.78 215.727 295.757 214.5 297.166 212.045C298.575 209.591 299.28 206.091 299.28 201.545C299.28 198.523 298.956 195.949 298.308 193.824C297.672 191.699 296.751 190.08 295.547 188.966C294.354 187.852 292.916 187.295 291.234 187.295C288.712 187.295 286.74 188.54 285.32 191.028C283.899 193.506 283.189 197.011 283.189 201.545C283.189 204.568 283.507 207.136 284.143 209.25C284.78 211.364 285.695 212.972 286.888 214.074C288.092 215.176 289.541 215.727 291.234 215.727Z" fill="#999999"/>
</svg>
