<svg width="40" height="40" viewBox="0 0 40 40" fill="none" xmlns="http://www.w3.org/2000/svg">
<rect width="40" height="40" fill="#DDDDDD"/>
<path d="M4.58239 21.5085V20.7841L7.77841 15.7273H8.30398V16.8494H7.94886L5.53409 20.6705V20.7273H9.83807V21.5085H4.58239ZM8.00568 23V21.2884V20.951V15.7273H8.84375V23H8.00568ZM13.541 23.0994C13.006 23.0994 12.5502 22.9538 12.1738 22.6626C11.7974 22.3691 11.5098 21.9441 11.3109 21.3878C11.112 20.8291 11.0126 20.1544 11.0126 19.3636C11.0126 18.5777 11.112 17.9065 11.3109 17.3501C11.5121 16.7914 11.801 16.3653 12.1774 16.0717C12.5562 15.7758 13.0107 15.6278 13.541 15.6278C14.0713 15.6278 14.5247 15.7758 14.9011 16.0717C15.2799 16.3653 15.5687 16.7914 15.7676 17.3501C15.9688 17.9065 16.0694 18.5777 16.0694 19.3636C16.0694 20.1544 15.97 20.8291 15.7711 21.3878C15.5723 21.9441 15.2846 22.3691 14.9082 22.6626C14.5318 22.9538 14.0761 23.0994 13.541 23.0994ZM13.541 22.3182C14.0713 22.3182 14.4833 22.0625 14.7768 21.5511C15.0704 21.0398 15.2172 20.3106 15.2172 19.3636C15.2172 18.7339 15.1497 18.1977 15.0147 17.755C14.8822 17.3123 14.6904 16.9749 14.4395 16.7429C14.1909 16.5109 13.8914 16.3949 13.541 16.3949C13.0154 16.3949 12.6047 16.6541 12.3088 17.1726C12.0128 17.6887 11.8649 18.419 11.8649 19.3636C11.8649 19.9934 11.9312 20.5284 12.0637 20.9688C12.1963 21.4091 12.3869 21.7441 12.6355 21.9737C12.8864 22.2034 13.1883 22.3182 13.541 22.3182ZM21.6944 21.6932L17.6887 17.6875L18.2285 17.1477L22.2342 21.1534L21.6944 21.6932ZM18.2285 21.6932L17.6887 21.1534L21.6944 17.1477L22.2342 17.6875L18.2285 21.6932ZM23.8402 21.5085V20.7841L27.0362 15.7273H27.5618V16.8494H27.2067L24.7919 20.6705V20.7273H29.0959V21.5085H23.8402ZM27.2635 23V21.2884V20.951V15.7273H28.1016V23H27.2635ZM32.7988 23.0994C32.2638 23.0994 31.8081 22.9538 31.4316 22.6626C31.0552 22.3691 30.7676 21.9441 30.5687 21.3878C30.3699 20.8291 30.2704 20.1544 30.2704 19.3636C30.2704 18.5777 30.3699 17.9065 30.5687 17.3501C30.7699 16.7914 31.0588 16.3653 31.4352 16.0717C31.814 15.7758 32.2685 15.6278 32.7988 15.6278C33.3291 15.6278 33.7825 15.7758 34.1589 16.0717C34.5377 16.3653 34.8265 16.7914 35.0254 17.3501C35.2266 17.9065 35.3272 18.5777 35.3272 19.3636C35.3272 20.1544 35.2278 20.8291 35.0289 21.3878C34.8301 21.9441 34.5424 22.3691 34.166 22.6626C33.7896 22.9538 33.3339 23.0994 32.7988 23.0994ZM32.7988 22.3182C33.3291 22.3182 33.7411 22.0625 34.0346 21.5511C34.3282 21.0398 34.475 20.3106 34.475 19.3636C34.475 18.7339 34.4075 18.1977 34.2725 17.755C34.14 17.3123 33.9482 16.9749 33.6973 16.7429C33.4487 16.5109 33.1492 16.3949 32.7988 16.3949C32.2733 16.3949 31.8625 16.6541 31.5666 17.1726C31.2707 17.6887 31.1227 18.419 31.1227 19.3636C31.1227 19.9934 31.189 20.5284 31.3216 20.9688C31.4541 21.4091 31.6447 21.7441 31.8933 21.9737C32.1442 22.2034 32.4461 22.3182 32.7988 22.3182Z" fill="#999999"/>
</svg>
