<svg width="500" height="500" viewBox="0 0 500 500" fill="none" xmlns="http://www.w3.org/2000/svg">
<rect width="500" height="500" fill="#DDDDDD"/>
<path d="M158.523 268.477C156.523 268.477 154.722 268.08 153.119 267.284C151.517 266.489 150.233 265.398 149.267 264.011C148.301 262.625 147.773 261.045 147.682 259.273H151.773C151.932 260.852 152.648 262.159 153.92 263.193C155.205 264.216 156.739 264.727 158.523 264.727C159.955 264.727 161.227 264.392 162.341 263.722C163.466 263.051 164.347 262.131 164.983 260.96C165.631 259.778 165.955 258.443 165.955 256.955C165.955 255.432 165.619 254.074 164.949 252.881C164.29 251.676 163.381 250.727 162.222 250.034C161.063 249.341 159.739 248.989 158.25 248.977C157.182 248.966 156.085 249.131 154.96 249.472C153.835 249.801 152.909 250.227 152.182 250.75L148.227 250.273L150.341 233.091H168.477V236.841H153.886L152.659 247.136H152.864C153.58 246.568 154.477 246.097 155.557 245.722C156.636 245.347 157.761 245.159 158.932 245.159C161.068 245.159 162.972 245.67 164.642 246.693C166.324 247.705 167.642 249.091 168.597 250.852C169.562 252.614 170.045 254.625 170.045 256.886C170.045 259.114 169.545 261.102 168.545 262.852C167.557 264.591 166.193 265.966 164.455 266.977C162.716 267.977 160.739 268.477 158.523 268.477ZM188.203 268.477C185.635 268.477 183.447 267.778 181.641 266.381C179.834 264.972 178.453 262.932 177.499 260.261C176.544 257.58 176.067 254.341 176.067 250.545C176.067 246.773 176.544 243.551 177.499 240.881C178.464 238.199 179.851 236.153 181.658 234.744C183.476 233.324 185.658 232.614 188.203 232.614C190.749 232.614 192.925 233.324 194.732 234.744C196.55 236.153 197.936 238.199 198.891 240.881C199.857 243.551 200.339 246.773 200.339 250.545C200.339 254.341 199.862 257.58 198.908 260.261C197.953 262.932 196.572 264.972 194.766 266.381C192.959 267.778 190.771 268.477 188.203 268.477ZM188.203 264.727C190.749 264.727 192.726 263.5 194.135 261.045C195.544 258.591 196.249 255.091 196.249 250.545C196.249 247.523 195.925 244.949 195.277 242.824C194.641 240.699 193.72 239.08 192.516 237.966C191.322 236.852 189.885 236.295 188.203 236.295C185.68 236.295 183.709 237.54 182.288 240.028C180.868 242.506 180.158 246.011 180.158 250.545C180.158 253.568 180.476 256.136 181.112 258.25C181.749 260.364 182.663 261.972 183.857 263.074C185.061 264.176 186.51 264.727 188.203 264.727ZM218.203 268.477C215.635 268.477 213.447 267.778 211.641 266.381C209.834 264.972 208.453 262.932 207.499 260.261C206.544 257.58 206.067 254.341 206.067 250.545C206.067 246.773 206.544 243.551 207.499 240.881C208.464 238.199 209.851 236.153 211.658 234.744C213.476 233.324 215.658 232.614 218.203 232.614C220.749 232.614 222.925 233.324 224.732 234.744C226.55 236.153 227.936 238.199 228.891 240.881C229.857 243.551 230.339 246.773 230.339 250.545C230.339 254.341 229.862 257.58 228.908 260.261C227.953 262.932 226.572 264.972 224.766 266.381C222.959 267.778 220.771 268.477 218.203 268.477ZM218.203 264.727C220.749 264.727 222.726 263.5 224.135 261.045C225.544 258.591 226.249 255.091 226.249 250.545C226.249 247.523 225.925 244.949 225.277 242.824C224.641 240.699 223.72 239.08 222.516 237.966C221.322 236.852 219.885 236.295 218.203 236.295C215.68 236.295 213.709 237.54 212.288 240.028C210.868 242.506 210.158 246.011 210.158 250.545C210.158 253.568 210.476 256.136 211.112 258.25C211.749 260.364 212.663 261.972 213.857 263.074C215.061 264.176 216.51 264.727 218.203 264.727ZM257.339 261.727L238.112 242.5L240.703 239.909L259.93 259.136L257.339 261.727ZM240.703 261.727L238.112 259.136L257.339 239.909L259.93 242.5L240.703 261.727ZM279.366 268.477C277.366 268.477 275.565 268.08 273.963 267.284C272.361 266.489 271.077 265.398 270.111 264.011C269.145 262.625 268.616 261.045 268.526 259.273H272.616C272.776 260.852 273.491 262.159 274.764 263.193C276.048 264.216 277.582 264.727 279.366 264.727C280.798 264.727 282.071 264.392 283.185 263.722C284.31 263.051 285.19 262.131 285.827 260.96C286.474 259.778 286.798 258.443 286.798 256.955C286.798 255.432 286.463 254.074 285.793 252.881C285.134 251.676 284.224 250.727 283.065 250.034C281.906 249.341 280.582 248.989 279.094 248.977C278.026 248.966 276.929 249.131 275.804 249.472C274.679 249.801 273.753 250.227 273.026 250.75L269.071 250.273L271.185 233.091H289.321V236.841H274.73L273.503 247.136H273.707C274.423 246.568 275.321 246.097 276.401 245.722C277.48 245.347 278.605 245.159 279.776 245.159C281.912 245.159 283.815 245.67 285.486 246.693C287.168 247.705 288.486 249.091 289.44 250.852C290.406 252.614 290.889 254.625 290.889 256.886C290.889 259.114 290.389 261.102 289.389 262.852C288.401 264.591 287.037 265.966 285.298 266.977C283.56 267.977 281.582 268.477 279.366 268.477ZM309.047 268.477C306.479 268.477 304.291 267.778 302.484 266.381C300.678 264.972 299.297 262.932 298.342 260.261C297.388 257.58 296.911 254.341 296.911 250.545C296.911 246.773 297.388 243.551 298.342 240.881C299.308 238.199 300.695 236.153 302.501 234.744C304.32 233.324 306.501 232.614 309.047 232.614C311.592 232.614 313.768 233.324 315.575 234.744C317.393 236.153 318.78 238.199 319.734 240.881C320.7 243.551 321.183 246.773 321.183 250.545C321.183 254.341 320.706 257.58 319.751 260.261C318.797 262.932 317.416 264.972 315.609 266.381C313.803 267.778 311.615 268.477 309.047 268.477ZM309.047 264.727C311.592 264.727 313.57 263.5 314.979 261.045C316.388 258.591 317.092 255.091 317.092 250.545C317.092 247.523 316.768 244.949 316.121 242.824C315.484 240.699 314.564 239.08 313.359 237.966C312.166 236.852 310.729 236.295 309.047 236.295C306.524 236.295 304.553 237.54 303.132 240.028C301.712 242.506 301.001 246.011 301.001 250.545C301.001 253.568 301.32 256.136 301.956 258.25C302.592 260.364 303.507 261.972 304.7 263.074C305.905 264.176 307.354 264.727 309.047 264.727ZM339.047 268.477C336.479 268.477 334.291 267.778 332.484 266.381C330.678 264.972 329.297 262.932 328.342 260.261C327.388 257.58 326.911 254.341 326.911 250.545C326.911 246.773 327.388 243.551 328.342 240.881C329.308 238.199 330.695 236.153 332.501 234.744C334.32 233.324 336.501 232.614 339.047 232.614C341.592 232.614 343.768 233.324 345.575 234.744C347.393 236.153 348.78 238.199 349.734 240.881C350.7 243.551 351.183 246.773 351.183 250.545C351.183 254.341 350.706 257.58 349.751 260.261C348.797 262.932 347.416 264.972 345.609 266.381C343.803 267.778 341.615 268.477 339.047 268.477ZM339.047 264.727C341.592 264.727 343.57 263.5 344.979 261.045C346.388 258.591 347.092 255.091 347.092 250.545C347.092 247.523 346.768 244.949 346.121 242.824C345.484 240.699 344.564 239.08 343.359 237.966C342.166 236.852 340.729 236.295 339.047 236.295C336.524 236.295 334.553 237.54 333.132 240.028C331.712 242.506 331.001 246.011 331.001 250.545C331.001 253.568 331.32 256.136 331.956 258.25C332.592 260.364 333.507 261.972 334.7 263.074C335.905 264.176 337.354 264.727 339.047 264.727Z" fill="#999999"/>
</svg>
