<svg width="600" height="480" viewBox="0 0 600 480" fill="none" xmlns="http://www.w3.org/2000/svg">
<rect width="600" height="480" fill="#DDDDDD"/>
<path d="M179.273 266.636C177.364 266.606 175.455 266.242 173.545 265.545C171.636 264.848 169.894 263.674 168.318 262.023C166.742 260.356 165.477 258.106 164.523 255.273C163.568 252.424 163.091 248.848 163.091 244.545C163.091 240.424 163.477 236.773 164.25 233.591C165.023 230.394 166.144 227.705 167.614 225.523C169.083 223.326 170.856 221.659 172.932 220.523C175.023 219.386 177.379 218.818 180 218.818C182.606 218.818 184.924 219.341 186.955 220.386C189 221.417 190.667 222.856 191.955 224.705C193.242 226.553 194.076 228.682 194.455 231.091H188.909C188.394 229 187.394 227.265 185.909 225.886C184.424 224.508 182.455 223.818 180 223.818C176.394 223.818 173.553 225.386 171.477 228.523C169.417 231.659 168.379 236.061 168.364 241.727H168.727C169.576 240.439 170.583 239.341 171.75 238.432C172.932 237.508 174.235 236.795 175.659 236.295C177.083 235.795 178.591 235.545 180.182 235.545C182.848 235.545 185.288 236.212 187.5 237.545C189.712 238.864 191.485 240.689 192.818 243.023C194.152 245.341 194.818 248 194.818 251C194.818 253.879 194.174 256.515 192.886 258.909C191.598 261.288 189.788 263.182 187.455 264.591C185.136 265.985 182.409 266.667 179.273 266.636ZM179.273 261.636C181.182 261.636 182.894 261.159 184.409 260.205C185.939 259.25 187.144 257.97 188.023 256.364C188.917 254.758 189.364 252.97 189.364 251C189.364 249.076 188.932 247.326 188.068 245.75C187.22 244.159 186.045 242.894 184.545 241.955C183.061 241.015 181.364 240.545 179.455 240.545C178.015 240.545 176.674 240.833 175.432 241.409C174.189 241.97 173.098 242.742 172.159 243.727C171.235 244.712 170.508 245.841 169.977 247.114C169.447 248.371 169.182 249.697 169.182 251.091C169.182 252.939 169.614 254.667 170.477 256.273C171.356 257.879 172.553 259.174 174.068 260.159C175.598 261.144 177.333 261.636 179.273 261.636ZM218.938 266.636C215.513 266.636 212.597 265.705 210.188 263.841C207.778 261.962 205.938 259.242 204.665 255.682C203.392 252.106 202.756 247.788 202.756 242.727C202.756 237.697 203.392 233.402 204.665 229.841C205.953 226.265 207.801 223.538 210.21 221.659C212.634 219.765 215.544 218.818 218.938 218.818C222.331 218.818 225.233 219.765 227.642 221.659C230.066 223.538 231.915 226.265 233.188 229.841C234.475 233.402 235.119 237.697 235.119 242.727C235.119 247.788 234.483 252.106 233.21 255.682C231.938 259.242 230.097 261.962 227.688 263.841C225.278 265.705 222.362 266.636 218.938 266.636ZM218.938 261.636C222.331 261.636 224.968 260 226.847 256.727C228.725 253.455 229.665 248.788 229.665 242.727C229.665 238.697 229.233 235.265 228.369 232.432C227.521 229.598 226.294 227.439 224.688 225.955C223.097 224.47 221.18 223.727 218.938 223.727C215.574 223.727 212.945 225.386 211.051 228.705C209.157 232.008 208.21 236.682 208.21 242.727C208.21 246.758 208.634 250.182 209.483 253C210.331 255.818 211.551 257.962 213.142 259.432C214.748 260.902 216.68 261.636 218.938 261.636ZM258.938 266.636C255.513 266.636 252.597 265.705 250.188 263.841C247.778 261.962 245.938 259.242 244.665 255.682C243.392 252.106 242.756 247.788 242.756 242.727C242.756 237.697 243.392 233.402 244.665 229.841C245.953 226.265 247.801 223.538 250.21 221.659C252.634 219.765 255.544 218.818 258.938 218.818C262.331 218.818 265.233 219.765 267.642 221.659C270.066 223.538 271.915 226.265 273.188 229.841C274.475 233.402 275.119 237.697 275.119 242.727C275.119 247.788 274.483 252.106 273.21 255.682C271.938 259.242 270.097 261.962 267.688 263.841C265.278 265.705 262.362 266.636 258.938 266.636ZM258.938 261.636C262.331 261.636 264.968 260 266.847 256.727C268.725 253.455 269.665 248.788 269.665 242.727C269.665 238.697 269.233 235.265 268.369 232.432C267.521 229.598 266.294 227.439 264.688 225.955C263.097 224.47 261.18 223.727 258.938 223.727C255.574 223.727 252.945 225.386 251.051 228.705C249.157 232.008 248.21 236.682 248.21 242.727C248.21 246.758 248.634 250.182 249.483 253C250.331 255.818 251.551 257.962 253.142 259.432C254.748 260.902 256.68 261.636 258.938 261.636ZM311.119 257.636L285.483 232L288.938 228.545L314.574 254.182L311.119 257.636ZM288.938 257.636L285.483 254.182L311.119 228.545L314.574 232L288.938 257.636ZM324.852 256.455V251.818L345.307 219.455H348.67V226.636H346.398L330.943 251.091V251.455H358.489V256.455H324.852ZM346.761 266V255.045V252.886V219.455H352.125V266H346.761ZM381.915 266.636C378.794 266.636 376.036 266.083 373.642 264.977C371.263 263.856 369.407 262.318 368.074 260.364C366.741 258.394 366.081 256.152 366.097 253.636C366.081 251.667 366.468 249.848 367.256 248.182C368.044 246.5 369.119 245.098 370.483 243.977C371.862 242.841 373.4 242.121 375.097 241.818V241.545C372.869 240.97 371.097 239.72 369.778 237.795C368.46 235.856 367.809 233.652 367.824 231.182C367.809 228.818 368.407 226.705 369.619 224.841C370.831 222.977 372.498 221.508 374.619 220.432C376.756 219.356 379.188 218.818 381.915 218.818C384.612 218.818 387.021 219.356 389.142 220.432C391.263 221.508 392.93 222.977 394.142 224.841C395.369 226.705 395.991 228.818 396.006 231.182C395.991 233.652 395.316 235.856 393.983 237.795C392.665 239.72 390.915 240.97 388.733 241.545V241.818C390.415 242.121 391.93 242.841 393.278 243.977C394.627 245.098 395.703 246.5 396.506 248.182C397.309 249.848 397.718 251.667 397.733 253.636C397.718 256.152 397.036 258.394 395.688 260.364C394.354 262.318 392.498 263.856 390.119 264.977C387.756 266.083 385.021 266.636 381.915 266.636ZM381.915 261.636C384.021 261.636 385.839 261.295 387.369 260.614C388.9 259.932 390.081 258.97 390.915 257.727C391.748 256.485 392.172 255.03 392.188 253.364C392.172 251.606 391.718 250.053 390.824 248.705C389.93 247.356 388.71 246.295 387.165 245.523C385.634 244.75 383.884 244.364 381.915 244.364C379.93 244.364 378.157 244.75 376.597 245.523C375.051 246.295 373.831 247.356 372.938 248.705C372.059 250.053 371.627 251.606 371.642 253.364C371.627 255.03 372.028 256.485 372.847 257.727C373.68 258.97 374.869 259.932 376.415 260.614C377.96 261.295 379.794 261.636 381.915 261.636ZM381.915 239.545C383.581 239.545 385.059 239.212 386.347 238.545C387.65 237.879 388.672 236.947 389.415 235.75C390.157 234.553 390.536 233.152 390.551 231.545C390.536 229.97 390.165 228.598 389.438 227.432C388.71 226.25 387.703 225.341 386.415 224.705C385.127 224.053 383.627 223.727 381.915 223.727C380.172 223.727 378.65 224.053 377.347 224.705C376.044 225.341 375.036 226.25 374.324 227.432C373.612 228.598 373.263 229.97 373.278 231.545C373.263 233.152 373.619 234.553 374.347 235.75C375.089 236.947 376.112 237.879 377.415 238.545C378.718 239.212 380.218 239.545 381.915 239.545ZM421.625 266.636C418.201 266.636 415.284 265.705 412.875 263.841C410.466 261.962 408.625 259.242 407.352 255.682C406.08 252.106 405.443 247.788 405.443 242.727C405.443 237.697 406.08 233.402 407.352 229.841C408.64 226.265 410.489 223.538 412.898 221.659C415.322 219.765 418.231 218.818 421.625 218.818C425.019 218.818 427.92 219.765 430.33 221.659C432.754 223.538 434.602 226.265 435.875 229.841C437.163 233.402 437.807 237.697 437.807 242.727C437.807 247.788 437.17 252.106 435.898 255.682C434.625 259.242 432.784 261.962 430.375 263.841C427.966 265.705 425.049 266.636 421.625 266.636ZM421.625 261.636C425.019 261.636 427.655 260 429.534 256.727C431.413 253.455 432.352 248.788 432.352 242.727C432.352 238.697 431.92 235.265 431.057 232.432C430.208 229.598 428.981 227.439 427.375 225.955C425.784 224.47 423.867 223.727 421.625 223.727C418.261 223.727 415.633 225.386 413.739 228.705C411.845 232.008 410.898 236.682 410.898 242.727C410.898 246.758 411.322 250.182 412.17 253C413.019 255.818 414.239 257.962 415.83 259.432C417.436 260.902 419.367 261.636 421.625 261.636Z" fill="#999999"/>
</svg>
