<svg width="60" height="90" viewBox="0 0 60 90" fill="none" xmlns="http://www.w3.org/2000/svg">
<rect width="60" height="90" fill="#DDDDDD"/>
<path d="M12.7514 50.1491C12.304 50.142 11.8565 50.0568 11.4091 49.8935C10.9616 49.7301 10.5533 49.4549 10.1839 49.0678C9.81463 48.6772 9.51811 48.1499 9.29439 47.4858C9.07067 46.8182 8.95881 45.9801 8.95881 44.9716C8.95881 44.0057 9.04936 43.1499 9.23047 42.4041C9.41158 41.6548 9.67436 41.0245 10.0188 40.5131C10.3633 39.9982 10.7788 39.6076 11.2653 39.3413C11.7553 39.0749 12.3075 38.9418 12.9219 38.9418C13.5327 38.9418 14.076 39.0643 14.5518 39.3093C15.0313 39.5508 15.4219 39.8881 15.7237 40.3214C16.0256 40.7546 16.2209 41.2536 16.3097 41.8182H15.0099C14.8892 41.3281 14.6548 40.9215 14.3068 40.5984C13.9588 40.2752 13.4972 40.1136 12.9219 40.1136C12.0767 40.1136 11.4109 40.4812 10.9244 41.2163C10.4414 41.9513 10.1982 42.983 10.1946 44.3111H10.2798C10.4787 44.0092 10.7148 43.7518 10.9883 43.5387C11.2653 43.3221 11.5707 43.1552 11.9045 43.038C12.2383 42.9208 12.5916 42.8622 12.9645 42.8622C13.5895 42.8622 14.1612 43.0185 14.6797 43.331C15.1982 43.6399 15.6136 44.0678 15.9261 44.6147C16.2386 45.158 16.3949 45.7812 16.3949 46.4844C16.3949 47.1591 16.244 47.777 15.9421 48.3381C15.6403 48.8956 15.2159 49.3395 14.669 49.6697C14.1257 49.9964 13.4865 50.1562 12.7514 50.1491ZM12.7514 48.9773C13.1989 48.9773 13.6001 48.8654 13.9553 48.6417C14.3139 48.418 14.5962 48.1179 14.8022 47.7415C15.0117 47.3651 15.1165 46.946 15.1165 46.4844C15.1165 46.0334 15.0153 45.6232 14.8129 45.2539C14.614 44.881 14.3388 44.5845 13.9872 44.3643C13.6392 44.1442 13.2415 44.0341 12.794 44.0341C12.4567 44.0341 12.1424 44.1016 11.8512 44.2365C11.56 44.3679 11.3043 44.549 11.0842 44.7798C10.8675 45.0107 10.6971 45.2752 10.5728 45.5735C10.4485 45.8683 10.3864 46.179 10.3864 46.5057C10.3864 46.9389 10.4876 47.3437 10.69 47.7202C10.896 48.0966 11.1765 48.4002 11.5316 48.631C11.8903 48.8619 12.2969 48.9773 12.7514 48.9773ZM22.0479 50.1491C21.2453 50.1491 20.5617 49.9308 19.9971 49.494C19.4324 49.0536 19.001 48.4162 18.7027 47.5817C18.4044 46.7436 18.2552 45.7315 18.2552 44.5455C18.2552 43.3665 18.4044 42.3597 18.7027 41.5252C19.0045 40.6871 19.4378 40.0479 20.0024 39.6076C20.5706 39.1637 21.2524 38.9418 22.0479 38.9418C22.8433 38.9418 23.5233 39.1637 24.088 39.6076C24.6562 40.0479 25.0894 40.6871 25.3877 41.5252C25.6895 42.3597 25.8405 43.3665 25.8405 44.5455C25.8405 45.7315 25.6913 46.7436 25.393 47.5817C25.0947 48.4162 24.6633 49.0536 24.0986 49.494C23.534 49.9308 22.8504 50.1491 22.0479 50.1491ZM22.0479 48.9773C22.8433 48.9773 23.4612 48.5937 23.9015 47.8267C24.3419 47.0597 24.5621 45.9659 24.5621 44.5455C24.5621 43.6009 24.4608 42.7965 24.2584 42.1325C24.0596 41.4684 23.7719 40.9624 23.3955 40.6143C23.0226 40.2663 22.5734 40.0923 22.0479 40.0923C21.2595 40.0923 20.6434 40.4812 20.1995 41.2589C19.7556 42.033 19.5336 43.1286 19.5336 44.5455C19.5336 45.4901 19.6331 46.2926 19.8319 46.9531C20.0308 47.6136 20.3167 48.1161 20.6895 48.4606C21.066 48.805 21.5187 48.9773 22.0479 48.9773ZM34.278 48.0398L28.2694 42.0312L29.0791 41.2216L35.0876 47.2301L34.278 48.0398ZM29.0791 48.0398L28.2694 47.2301L34.278 41.2216L35.0876 42.0312L29.0791 48.0398ZM41.2253 38.9418C41.6728 38.9453 42.1202 39.0305 42.5676 39.1974C43.0151 39.3643 43.4235 39.6413 43.7928 40.0284C44.1621 40.4119 44.4586 40.9357 44.6824 41.5998C44.9061 42.2638 45.0179 43.0966 45.0179 44.098C45.0179 45.0675 44.9256 45.9286 44.7409 46.6815C44.5598 47.4308 44.2971 48.0629 43.9526 48.5778C43.6117 49.0927 43.1962 49.4833 42.7061 49.7496C42.2196 50.016 41.6692 50.1491 41.0549 50.1491C40.4441 50.1491 39.899 50.0284 39.4196 49.7869C38.9437 49.5419 38.5531 49.2028 38.2477 48.7695C37.9458 48.3327 37.7523 47.8267 37.6671 47.2514H38.9668C39.084 47.7521 39.3166 48.1658 39.6646 48.4925C40.0162 48.8157 40.4796 48.9773 41.0549 48.9773C41.8965 48.9773 42.5605 48.6097 43.0471 47.8746C43.5371 47.1396 43.7821 46.1009 43.7821 44.7585H43.6969C43.498 45.0568 43.2619 45.3143 42.9885 45.5309C42.715 45.7475 42.4114 45.9144 42.0776 46.0316C41.7438 46.1488 41.3887 46.2074 41.0123 46.2074C40.3873 46.2074 39.8137 46.0529 39.2917 45.744C38.7733 45.4315 38.3578 45.0036 38.0453 44.4602C37.7363 43.9134 37.5819 43.2884 37.5819 42.5852C37.5819 41.9176 37.731 41.3068 38.0293 40.7528C38.3311 40.1953 38.7537 39.7514 39.2971 39.4212C39.8439 39.0909 40.4867 38.9311 41.2253 38.9418ZM41.2253 40.1136C40.7779 40.1136 40.3748 40.2255 40.0162 40.4492C39.661 40.6694 39.3787 40.9677 39.1692 41.3441C38.9632 41.717 38.8603 42.1307 38.8603 42.5852C38.8603 43.0398 38.9597 43.4535 39.1586 43.8263C39.361 44.1957 39.6362 44.4904 39.9842 44.7106C40.3358 44.9272 40.7353 45.0355 41.1827 45.0355C41.5201 45.0355 41.8343 44.9698 42.1255 44.8384C42.4167 44.7035 42.6706 44.5206 42.8873 44.2898C43.1074 44.0554 43.2797 43.7908 43.4039 43.4961C43.5282 43.1978 43.5904 42.8871 43.5904 42.5639C43.5904 42.1378 43.4874 41.7383 43.2814 41.3654C43.079 40.9925 42.7985 40.6907 42.4398 40.4599C42.0847 40.229 41.6799 40.1136 41.2253 40.1136ZM50.6709 50.1491C49.8683 50.1491 49.1847 49.9308 48.6201 49.494C48.0555 49.0536 47.624 48.4162 47.3257 47.5817C47.0274 46.7436 46.8783 45.7315 46.8783 44.5455C46.8783 43.3665 47.0274 42.3597 47.3257 41.5252C47.6276 40.6871 48.0608 40.0479 48.6254 39.6076C49.1936 39.1637 49.8754 38.9418 50.6709 38.9418C51.4664 38.9418 52.1464 39.1637 52.711 39.6076C53.2792 40.0479 53.7124 40.6871 54.0107 41.5252C54.3126 42.3597 54.4635 43.3665 54.4635 44.5455C54.4635 45.7315 54.3144 46.7436 54.0161 47.5817C53.7178 48.4162 53.2863 49.0536 52.7217 49.494C52.157 49.9308 51.4735 50.1491 50.6709 50.1491ZM50.6709 48.9773C51.4664 48.9773 52.0843 48.5937 52.5246 47.8267C52.9649 47.0597 53.1851 45.9659 53.1851 44.5455C53.1851 43.6009 53.0839 42.7965 52.8815 42.1325C52.6826 41.4684 52.395 40.9624 52.0186 40.6143C51.6457 40.2663 51.1965 40.0923 50.6709 40.0923C49.8825 40.0923 49.2664 40.4812 48.8225 41.2589C48.3786 42.033 48.1567 43.1286 48.1567 44.5455C48.1567 45.4901 48.2561 46.2926 48.455 46.9531C48.6539 47.6136 48.9397 48.1161 49.3126 48.4606C49.689 48.805 50.1418 48.9773 50.6709 48.9773Z" fill="#999999"/>
</svg>
