<svg width="600" height="480" viewBox="0 0 600 480" fill="none" xmlns="http://www.w3.org/2000/svg">
<rect width="600" height="480" fill="#DDDDDD"/>
<path d="M178.727 265.636C175.606 265.636 172.848 265.083 170.455 263.977C168.076 262.856 166.22 261.318 164.886 259.364C163.553 257.394 162.894 255.152 162.909 252.636C162.894 250.667 163.28 248.848 164.068 247.182C164.856 245.5 165.932 244.098 167.295 242.977C168.674 241.841 170.212 241.121 171.909 240.818V240.545C169.682 239.97 167.909 238.72 166.591 236.795C165.273 234.856 164.621 232.652 164.636 230.182C164.621 227.818 165.22 225.705 166.432 223.841C167.644 221.977 169.311 220.508 171.432 219.432C173.568 218.356 176 217.818 178.727 217.818C181.424 217.818 183.833 218.356 185.955 219.432C188.076 220.508 189.742 221.977 190.955 223.841C192.182 225.705 192.803 227.818 192.818 230.182C192.803 232.652 192.129 234.856 190.795 236.795C189.477 238.72 187.727 239.97 185.545 240.545V240.818C187.227 241.121 188.742 241.841 190.091 242.977C191.439 244.098 192.515 245.5 193.318 247.182C194.121 248.848 194.53 250.667 194.545 252.636C194.53 255.152 193.848 257.394 192.5 259.364C191.167 261.318 189.311 262.856 186.932 263.977C184.568 265.083 181.833 265.636 178.727 265.636ZM178.727 260.636C180.833 260.636 182.652 260.295 184.182 259.614C185.712 258.932 186.894 257.97 187.727 256.727C188.561 255.485 188.985 254.03 189 252.364C188.985 250.606 188.53 249.053 187.636 247.705C186.742 246.356 185.523 245.295 183.977 244.523C182.447 243.75 180.697 243.364 178.727 243.364C176.742 243.364 174.97 243.75 173.409 244.523C171.864 245.295 170.644 246.356 169.75 247.705C168.871 249.053 168.439 250.606 168.455 252.364C168.439 254.03 168.841 255.485 169.659 256.727C170.492 257.97 171.682 258.932 173.227 259.614C174.773 260.295 176.606 260.636 178.727 260.636ZM178.727 238.545C180.394 238.545 181.871 238.212 183.159 237.545C184.462 236.879 185.485 235.947 186.227 234.75C186.97 233.553 187.348 232.152 187.364 230.545C187.348 228.97 186.977 227.598 186.25 226.432C185.523 225.25 184.515 224.341 183.227 223.705C181.939 223.053 180.439 222.727 178.727 222.727C176.985 222.727 175.462 223.053 174.159 223.705C172.856 224.341 171.848 225.25 171.136 226.432C170.424 227.598 170.076 228.97 170.091 230.545C170.076 232.152 170.432 233.553 171.159 234.75C171.902 235.947 172.924 236.879 174.227 237.545C175.53 238.212 177.03 238.545 178.727 238.545ZM218.438 265.636C215.013 265.636 212.097 264.705 209.688 262.841C207.278 260.962 205.438 258.242 204.165 254.682C202.892 251.106 202.256 246.788 202.256 241.727C202.256 236.697 202.892 232.402 204.165 228.841C205.453 225.265 207.301 222.538 209.71 220.659C212.134 218.765 215.044 217.818 218.438 217.818C221.831 217.818 224.733 218.765 227.142 220.659C229.566 222.538 231.415 225.265 232.688 228.841C233.975 232.402 234.619 236.697 234.619 241.727C234.619 246.788 233.983 251.106 232.71 254.682C231.438 258.242 229.597 260.962 227.188 262.841C224.778 264.705 221.862 265.636 218.438 265.636ZM218.438 260.636C221.831 260.636 224.468 259 226.347 255.727C228.225 252.455 229.165 247.788 229.165 241.727C229.165 237.697 228.733 234.265 227.869 231.432C227.021 228.598 225.794 226.439 224.188 224.955C222.597 223.47 220.68 222.727 218.438 222.727C215.074 222.727 212.445 224.386 210.551 227.705C208.657 231.008 207.71 235.682 207.71 241.727C207.71 245.758 208.134 249.182 208.983 252C209.831 254.818 211.051 256.962 212.642 258.432C214.248 259.902 216.18 260.636 218.438 260.636ZM258.438 265.636C255.013 265.636 252.097 264.705 249.688 262.841C247.278 260.962 245.438 258.242 244.165 254.682C242.892 251.106 242.256 246.788 242.256 241.727C242.256 236.697 242.892 232.402 244.165 228.841C245.453 225.265 247.301 222.538 249.71 220.659C252.134 218.765 255.044 217.818 258.438 217.818C261.831 217.818 264.733 218.765 267.142 220.659C269.566 222.538 271.415 225.265 272.688 228.841C273.975 232.402 274.619 236.697 274.619 241.727C274.619 246.788 273.983 251.106 272.71 254.682C271.438 258.242 269.597 260.962 267.188 262.841C264.778 264.705 261.862 265.636 258.438 265.636ZM258.438 260.636C261.831 260.636 264.468 259 266.347 255.727C268.225 252.455 269.165 247.788 269.165 241.727C269.165 237.697 268.733 234.265 267.869 231.432C267.021 228.598 265.794 226.439 264.188 224.955C262.597 223.47 260.68 222.727 258.438 222.727C255.074 222.727 252.445 224.386 250.551 227.705C248.657 231.008 247.71 235.682 247.71 241.727C247.71 245.758 248.134 249.182 248.983 252C249.831 254.818 251.051 256.962 252.642 258.432C254.248 259.902 256.18 260.636 258.438 260.636ZM310.619 256.636L284.983 231L288.438 227.545L314.074 253.182L310.619 256.636ZM288.438 256.636L284.983 253.182L310.619 227.545L314.074 231L288.438 256.636ZM339.989 265.636C337.322 265.636 334.92 265.106 332.784 264.045C330.648 262.985 328.936 261.53 327.648 259.682C326.36 257.833 325.655 255.727 325.534 253.364H330.989C331.201 255.47 332.155 257.212 333.852 258.591C335.564 259.955 337.61 260.636 339.989 260.636C341.898 260.636 343.595 260.189 345.08 259.295C346.58 258.402 347.754 257.174 348.602 255.614C349.466 254.038 349.898 252.258 349.898 250.273C349.898 248.242 349.451 246.432 348.557 244.841C347.678 243.235 346.466 241.97 344.92 241.045C343.375 240.121 341.61 239.652 339.625 239.636C338.201 239.621 336.739 239.841 335.239 240.295C333.739 240.735 332.504 241.303 331.534 242L326.261 241.364L329.08 218.455H353.261V223.455H333.807L332.17 237.182H332.443C333.398 236.424 334.595 235.795 336.034 235.295C337.473 234.795 338.973 234.545 340.534 234.545C343.383 234.545 345.92 235.227 348.148 236.591C350.39 237.939 352.148 239.788 353.42 242.136C354.708 244.485 355.352 247.167 355.352 250.182C355.352 253.152 354.686 255.803 353.352 258.136C352.034 260.455 350.216 262.288 347.898 263.636C345.58 264.97 342.943 265.636 339.989 265.636ZM379.562 265.636C376.138 265.636 373.222 264.705 370.812 262.841C368.403 260.962 366.563 258.242 365.29 254.682C364.017 251.106 363.381 246.788 363.381 241.727C363.381 236.697 364.017 232.402 365.29 228.841C366.578 225.265 368.426 222.538 370.835 220.659C373.259 218.765 376.169 217.818 379.562 217.818C382.956 217.818 385.858 218.765 388.267 220.659C390.691 222.538 392.54 225.265 393.812 228.841C395.1 232.402 395.744 236.697 395.744 241.727C395.744 246.788 395.108 251.106 393.835 254.682C392.562 258.242 390.722 260.962 388.312 262.841C385.903 264.705 382.987 265.636 379.562 265.636ZM379.562 260.636C382.956 260.636 385.593 259 387.472 255.727C389.35 252.455 390.29 247.788 390.29 241.727C390.29 237.697 389.858 234.265 388.994 231.432C388.146 228.598 386.919 226.439 385.312 224.955C383.722 223.47 381.805 222.727 379.562 222.727C376.199 222.727 373.57 224.386 371.676 227.705C369.782 231.008 368.835 235.682 368.835 241.727C368.835 245.758 369.259 249.182 370.108 252C370.956 254.818 372.176 256.962 373.767 258.432C375.373 259.902 377.305 260.636 379.562 260.636ZM419.562 265.636C416.138 265.636 413.222 264.705 410.812 262.841C408.403 260.962 406.563 258.242 405.29 254.682C404.017 251.106 403.381 246.788 403.381 241.727C403.381 236.697 404.017 232.402 405.29 228.841C406.578 225.265 408.426 222.538 410.835 220.659C413.259 218.765 416.169 217.818 419.562 217.818C422.956 217.818 425.858 218.765 428.267 220.659C430.691 222.538 432.54 225.265 433.812 228.841C435.1 232.402 435.744 236.697 435.744 241.727C435.744 246.788 435.108 251.106 433.835 254.682C432.562 258.242 430.722 260.962 428.312 262.841C425.903 264.705 422.987 265.636 419.562 265.636ZM419.562 260.636C422.956 260.636 425.593 259 427.472 255.727C429.35 252.455 430.29 247.788 430.29 241.727C430.29 237.697 429.858 234.265 428.994 231.432C428.146 228.598 426.919 226.439 425.312 224.955C423.722 223.47 421.805 222.727 419.562 222.727C416.199 222.727 413.57 224.386 411.676 227.705C409.782 231.008 408.835 235.682 408.835 241.727C408.835 245.758 409.259 249.182 410.108 252C410.956 254.818 412.176 256.962 413.767 258.432C415.373 259.902 417.305 260.636 419.562 260.636Z" fill="#999999"/>
</svg>
