<svg width="90" height="60" viewBox="0 0 90 60" fill="none" xmlns="http://www.w3.org/2000/svg">
<rect width="90" height="60" fill="#DDDDDD"/>
<path d="M25.6023 24.9418C26.0497 24.9453 26.4972 25.0305 26.9446 25.1974C27.392 25.3643 27.8004 25.6413 28.1697 26.0284C28.5391 26.4119 28.8356 26.9357 29.0593 27.5998C29.283 28.2638 29.3949 29.0966 29.3949 30.098C29.3949 31.0675 29.3026 31.9286 29.1179 32.6815C28.9368 33.4308 28.674 34.0629 28.3295 34.5778C27.9886 35.0927 27.5732 35.4833 27.0831 35.7496C26.5966 36.016 26.0462 36.1491 25.4318 36.1491C24.821 36.1491 24.2759 36.0284 23.7965 35.7869C23.3207 35.5419 22.93 35.2028 22.6246 34.7695C22.3228 34.3327 22.1293 33.8267 22.044 33.2514H23.3438C23.4609 33.7521 23.6935 34.1658 24.0415 34.4925C24.3931 34.8157 24.8565 34.9773 25.4318 34.9773C26.2734 34.9773 26.9375 34.6097 27.424 33.8746C27.9141 33.1396 28.1591 32.1009 28.1591 30.7585H28.0739C27.875 31.0568 27.6388 31.3143 27.3654 31.5309C27.092 31.7475 26.7884 31.9144 26.4545 32.0316C26.1207 32.1488 25.7656 32.2074 25.3892 32.2074C24.7642 32.2074 24.1907 32.0529 23.6687 31.744C23.1502 31.4315 22.7347 31.0036 22.4222 30.4602C22.1133 29.9134 21.9588 29.2884 21.9588 28.5852C21.9588 27.9176 22.108 27.3068 22.4062 26.7528C22.7081 26.1953 23.1307 25.7514 23.674 25.4212C24.2209 25.0909 24.8636 24.9311 25.6023 24.9418ZM25.6023 26.1136C25.1548 26.1136 24.7518 26.2255 24.3931 26.4492C24.038 26.6694 23.7557 26.9677 23.5462 27.3441C23.3402 27.717 23.2372 28.1307 23.2372 28.5852C23.2372 29.0398 23.3366 29.4535 23.5355 29.8263C23.7379 30.1957 24.0131 30.4904 24.3612 30.7106C24.7127 30.9272 25.1122 31.0355 25.5597 31.0355C25.897 31.0355 26.2113 30.9698 26.5025 30.8384C26.7937 30.7035 27.0476 30.5206 27.2642 30.2898C27.4844 30.0554 27.6566 29.7908 27.7809 29.4961C27.9052 29.1978 27.9673 28.8871 27.9673 28.5639C27.9673 28.1378 27.8643 27.7383 27.6584 27.3654C27.456 26.9925 27.1754 26.6907 26.8168 26.4599C26.4616 26.229 26.0568 26.1136 25.6023 26.1136ZM35.0479 36.1491C34.2453 36.1491 33.5617 35.9308 32.9971 35.494C32.4324 35.0536 32.001 34.4162 31.7027 33.5817C31.4044 32.7436 31.2552 31.7315 31.2552 30.5455C31.2552 29.3665 31.4044 28.3597 31.7027 27.5252C32.0045 26.6871 32.4378 26.0479 33.0024 25.6076C33.5706 25.1637 34.2524 24.9418 35.0479 24.9418C35.8433 24.9418 36.5233 25.1637 37.088 25.6076C37.6562 26.0479 38.0894 26.6871 38.3877 27.5252C38.6895 28.3597 38.8405 29.3665 38.8405 30.5455C38.8405 31.7315 38.6913 32.7436 38.393 33.5817C38.0947 34.4162 37.6633 35.0536 37.0986 35.494C36.534 35.9308 35.8504 36.1491 35.0479 36.1491ZM35.0479 34.9773C35.8433 34.9773 36.4612 34.5937 36.9015 33.8267C37.3419 33.0597 37.5621 31.9659 37.5621 30.5455C37.5621 29.6009 37.4608 28.7965 37.2584 28.1325C37.0596 27.4684 36.7719 26.9624 36.3955 26.6143C36.0226 26.2663 35.5734 26.0923 35.0479 26.0923C34.2595 26.0923 33.6434 26.4812 33.1995 27.2589C32.7556 28.033 32.5336 29.1286 32.5336 30.5455C32.5336 31.4901 32.6331 32.2926 32.8319 32.9531C33.0308 33.6136 33.3167 34.1161 33.6895 34.4606C34.066 34.805 34.5187 34.9773 35.0479 34.9773ZM47.278 34.0398L41.2694 28.0312L42.0791 27.2216L48.0876 33.2301L47.278 34.0398ZM42.0791 34.0398L41.2694 33.2301L47.278 27.2216L48.0876 28.0312L42.0791 34.0398ZM54.3745 36.1491C53.927 36.142 53.4796 36.0568 53.0321 35.8935C52.5847 35.7301 52.1763 35.4549 51.807 35.0678C51.4377 34.6772 51.1412 34.1499 50.9174 33.4858C50.6937 32.8182 50.5819 31.9801 50.5819 30.9716C50.5819 30.0057 50.6724 29.1499 50.8535 28.4041C51.0346 27.6548 51.2974 27.0245 51.6419 26.5131C51.9863 25.9982 52.4018 25.6076 52.8883 25.3413C53.3784 25.0749 53.9306 24.9418 54.5449 24.9418C55.1557 24.9418 55.699 25.0643 56.1749 25.3093C56.6543 25.5508 57.0449 25.8881 57.3468 26.3214C57.6486 26.7546 57.8439 27.2536 57.9327 27.8182H56.633C56.5123 27.3281 56.2779 26.9215 55.9299 26.5984C55.5819 26.2752 55.1202 26.1136 54.5449 26.1136C53.6998 26.1136 53.0339 26.4812 52.5474 27.2163C52.0645 27.9513 51.8212 28.983 51.8176 30.3111H51.9029C52.1017 30.0092 52.3379 29.7518 52.6113 29.5387C52.8883 29.3221 53.1937 29.1552 53.5275 29.038C53.8613 28.9208 54.2147 28.8622 54.5875 28.8622C55.2125 28.8622 55.7843 29.0185 56.3027 29.331C56.8212 29.6399 57.2367 30.0678 57.5492 30.6147C57.8617 31.158 58.0179 31.7812 58.0179 32.4844C58.0179 33.1591 57.867 33.777 57.5652 34.3381C57.2633 34.8956 56.839 35.3395 56.2921 35.6697C55.7488 35.9964 55.1096 36.1562 54.3745 36.1491ZM54.3745 34.9773C54.8219 34.9773 55.2232 34.8654 55.5783 34.6417C55.937 34.418 56.2193 34.1179 56.4252 33.7415C56.6348 33.3651 56.7395 32.946 56.7395 32.4844C56.7395 32.0334 56.6383 31.6232 56.4359 31.2539C56.237 30.881 55.9618 30.5845 55.6103 30.3643C55.2623 30.1442 54.8645 30.0341 54.4171 30.0341C54.0797 30.0341 53.7654 30.1016 53.4743 30.2365C53.1831 30.3679 52.9274 30.549 52.7072 30.7798C52.4906 31.0107 52.3201 31.2752 52.1958 31.5735C52.0716 31.8683 52.0094 32.179 52.0094 32.5057C52.0094 32.9389 52.1106 33.3437 52.313 33.7202C52.519 34.0966 52.7995 34.4002 53.1547 34.631C53.5133 34.8619 53.9199 34.9773 54.3745 34.9773ZM63.6709 36.1491C62.8683 36.1491 62.1847 35.9308 61.6201 35.494C61.0555 35.0536 60.624 34.4162 60.3257 33.5817C60.0274 32.7436 59.8783 31.7315 59.8783 30.5455C59.8783 29.3665 60.0274 28.3597 60.3257 27.5252C60.6276 26.6871 61.0608 26.0479 61.6254 25.6076C62.1936 25.1637 62.8754 24.9418 63.6709 24.9418C64.4664 24.9418 65.1464 25.1637 65.711 25.6076C66.2792 26.0479 66.7124 26.6871 67.0107 27.5252C67.3126 28.3597 67.4635 29.3665 67.4635 30.5455C67.4635 31.7315 67.3144 32.7436 67.0161 33.5817C66.7178 34.4162 66.2863 35.0536 65.7217 35.494C65.157 35.9308 64.4735 36.1491 63.6709 36.1491ZM63.6709 34.9773C64.4664 34.9773 65.0843 34.5937 65.5246 33.8267C65.9649 33.0597 66.1851 31.9659 66.1851 30.5455C66.1851 29.6009 66.0839 28.7965 65.8815 28.1325C65.6826 27.4684 65.395 26.9624 65.0186 26.6143C64.6457 26.2663 64.1965 26.0923 63.6709 26.0923C62.8825 26.0923 62.2664 26.4812 61.8225 27.2589C61.3786 28.033 61.1567 29.1286 61.1567 30.5455C61.1567 31.4901 61.2561 32.2926 61.455 32.9531C61.6539 33.6136 61.9397 34.1161 62.3126 34.4606C62.689 34.805 63.1418 34.9773 63.6709 34.9773Z" fill="#999999"/>
</svg>
